<svg xmlns="http://www.w3.org/2000/svg" viewBox="0 0 60 24"><symbol xmlns="http://www.w3.org/2000/svg" viewBox="0 0 60 24" id="50c9d59f-80a8-44d5-a170-b1a2ec1a8164"><path fill="#F90" d="M18.39 7.68a3.19 3.19 0 0 1 3.74.54 3.29 3.29 0 0 1 .47.6c.6 1 .6 2.24 0 3.24l-.09.13a2.48 2.48 0 0 1-.18.24 3.64 3.64 0 0 1-.43.43 3.66 3.66 0 0 1-.37.26l-.13.07a3.18 3.18 0 0 1-4.13-1l-.08-.13a2.88 2.88 0 0 1-.14-.27 3.12 3.12 0 0 1-.25-1.99 3.13 3.13 0 0 1 .86-1.58l.1-.1.24-.2.26-.17.13-.07zm1.5.3-.71 1.45-1.62.24 1.17 1.12-.28 1.6 1.44-.76 1.44.76-.27-1.6 1.16-1.12-1.6-.23-.72-1.46z"></path><path fill="#09F" d="m13.33 6 .05.02c1.22.44 3.2.73 4.94.73h.13v.01a3.96 3.96 0 0 0-1.25.78 17.15 17.15 0 0 1-3.46-.55l-.32-.1h-.04l-.05-.02.1 10.24a5.61 5.61 0 0 0 1.91-1.15 7.04 7.04 0 0 0 1.78-2.7c.21.2.44.38.7.53a7.26 7.26 0 0 1-4.17 4.1l-.23.08-.04.02-.05.01-.04-.01c-2.72-.82-5.15-3.64-5.28-8.26-.03-.96.03-1.9.18-2.85l.03-.13h.12c1.74 0 3.73-.3 4.94-.73l.05-.02zm18.34 1.97c.5 0 .92.04 1.25.14.34.1.6.24.81.45.21.21.35.47.44.8.09.34.13.74.13 1.22v.7c0 .48-.04.88-.12 1.2a1.56 1.56 0 0 1-.43.76c-.2.2-.47.33-.81.4-.34.09-.76.12-1.27.12h-4.5v2.43h-1.22V7.97h5.72zM39 7.8c.26 0 .44.06.58.18.15.12.27.28.36.45l4.35 7.75h-1.46l-1.15-2.04h-5.4l-1.14 2.04H33.7l4.37-7.75a1.53 1.53 0 0 1 .35-.45.9.9 0 0 1 .6-.18zm4.78.15 3.27 3.14 3.33-3.14H52l-4.37 4.27v3.96h-1.22v-3.97l-4.34-4.26h1.7zm-4.8 1.34L36.9 13h4.16L38.98 9.3zm-7.32-.13h-4.49v3.44h4.5c.23 0 .45-.01.67-.05a.93.93 0 0 0 .43-.2.84.84 0 0 0 .23-.4c.05-.17.07-.4.07-.67v-.71a2.99 2.99 0 0 0-.07-.7.88.88 0 0 0-.24-.43.92.92 0 0 0-.44-.21 2.99 2.99 0 0 0-.66-.07z"></path></symbol><use href="#50c9d59f-80a8-44d5-a170-b1a2ec1a8164"></use></svg>